<svg width="37" height="160" viewBox="0 0 37 160" fill="none" xmlns="http://www.w3.org/2000/svg">
<rect x="7" y="21" width="23" height="112" fill="#636363"/>
<rect x="8" y="22" width="10" height="110" fill="#FEF400"/>
<rect x="19" y="22" width="10" height="110" fill="#22AE30"/>
<mask id="path-4-inside-1_442_86" fill="white">
<path d="M10.1001 24H27.1001V27H10.1001V24Z"/>
</mask>
<path d="M10.1001 24H27.1001V27H10.1001V24Z" fill="#484848" fill-opacity="0.5"/>
<path d="M27.1001 26H10.1001V28H27.1001V26Z" fill="#484848" fill-opacity="0.8" mask="url(#path-4-inside-1_442_86)"/>
<mask id="path-6-inside-2_442_86" fill="white">
<path d="M10.1001 29H27.1001V32H10.1001V29Z"/>
</mask>
<path d="M10.1001 29H27.1001V32H10.1001V29Z" fill="#484848" fill-opacity="0.5"/>
<path d="M27.1001 31H10.1001V33H27.1001V31Z" fill="#484848" fill-opacity="0.8" mask="url(#path-6-inside-2_442_86)"/>
<mask id="path-8-inside-3_442_86" fill="white">
<path d="M10.1001 34H27.1001V37H10.1001V34Z"/>
</mask>
<path d="M10.1001 34H27.1001V37H10.1001V34Z" fill="#484848" fill-opacity="0.5"/>
<path d="M27.1001 36H10.1001V38H27.1001V36Z" fill="#484848" fill-opacity="0.8" mask="url(#path-8-inside-3_442_86)"/>
<mask id="path-10-inside-4_442_86" fill="white">
<path d="M10.1001 39H27.1001V42H10.1001V39Z"/>
</mask>
<path d="M10.1001 39H27.1001V42H10.1001V39Z" fill="#484848" fill-opacity="0.5"/>
<path d="M27.1001 41H10.1001V43H27.1001V41Z" fill="#484848" fill-opacity="0.8" mask="url(#path-10-inside-4_442_86)"/>
<mask id="path-12-inside-5_442_86" fill="white">
<path d="M27 130H10V127H27V130Z"/>
</mask>
<path d="M27 130H10V127H27V130Z" fill="#484848" fill-opacity="0.5"/>
<path d="M10 128H27V126H10V128Z" fill="#484848" fill-opacity="0.8" mask="url(#path-12-inside-5_442_86)"/>
<mask id="path-14-inside-6_442_86" fill="white">
<path d="M27 125H10V122H27V125Z"/>
</mask>
<path d="M27 125H10V122H27V125Z" fill="#484848" fill-opacity="0.5"/>
<path d="M10 123H27V121H10V123Z" fill="#484848" fill-opacity="0.8" mask="url(#path-14-inside-6_442_86)"/>
<mask id="path-16-inside-7_442_86" fill="white">
<path d="M27 120H10V117H27V120Z"/>
</mask>
<path d="M27 120H10V117H27V120Z" fill="#484848" fill-opacity="0.5"/>
<path d="M10 118H27V116H10V118Z" fill="#484848" fill-opacity="0.8" mask="url(#path-16-inside-7_442_86)"/>
<mask id="path-18-inside-8_442_86" fill="white">
<path d="M27 115H10V112H27V115Z"/>
</mask>
<path d="M27 115H10V112H27V115Z" fill="#484848" fill-opacity="0.5"/>
<path d="M10 113H27V111H10V113Z" fill="#484848" fill-opacity="0.8" mask="url(#path-18-inside-8_442_86)"/>
<g filter="url(#filter0_i_442_86)">
<rect x="7" y="68" width="23" height="18" fill="black" fill-opacity="0.05"/>
</g>
<rect x="7.5" y="68.5" width="22" height="17" stroke="#636363"/>
<circle cx="18.5" cy="101.5" r="5.5" fill="black" fill-opacity="0.25"/>
<circle cx="18.5001" cy="101.5" r="4.08333" fill="#8C8C8C" stroke="#414141"/>
<path d="M15.75 98.75L21.25 104.25" stroke="#414141" stroke-width="2"/>
<circle cx="18.5" cy="52.5" r="5.5" fill="black" fill-opacity="0.25"/>
<circle cx="18.5001" cy="52.5" r="4.08333" fill="#8C8C8C" stroke="#414141"/>
<path d="M15.75 49.75L21.25 55.25" stroke="#414141" stroke-width="2"/>
<circle cx="18.5" cy="77.5" r="4.5" fill="black" fill-opacity="0.25"/>
<circle cx="18.5" cy="77.5" r="3.25" fill="#8C8C8C" stroke="#414141"/>
<path d="M16.25 75.25L20.75 79.75" stroke="#414141" stroke-width="2"/>
<rect x="0.5" y="0.5" width="36" height="159" stroke="#484848"/>
<defs>
<filter id="filter0_i_442_86" x="7" y="68" width="23" height="18" filterUnits="userSpaceOnUse" color-interpolation-filters="sRGB">
<feFlood flood-opacity="0" result="BackgroundImageFix"/>
<feBlend mode="normal" in="SourceGraphic" in2="BackgroundImageFix" result="shape"/>
<feColorMatrix in="SourceAlpha" type="matrix" values="0 0 0 0 0 0 0 0 0 0 0 0 0 0 0 0 0 0 127 0" result="hardAlpha"/>
<feMorphology radius="2" operator="dilate" in="SourceAlpha" result="effect1_innerShadow_442_86"/>
<feOffset dy="4"/>
<feGaussianBlur stdDeviation="1"/>
<feComposite in2="hardAlpha" operator="arithmetic" k2="-1" k3="1"/>
<feColorMatrix type="matrix" values="0 0 0 0 0 0 0 0 0 0 0 0 0 0 0 0 0 0 0.7 0"/>
<feBlend mode="normal" in2="shape" result="effect1_innerShadow_442_86"/>
</filter>
</defs>
</svg>
